# xmcd CD database file
#
# Track frame offsets:
#	150
#	19888
#	34121
#
# Disc length: 880 seconds
#
# Revision: 0
# Processed by: cddbd v1.5.2PL0 Copyright (c) Steve Scherf et al.
# Submitted via: CDex 1.70beta3
#
DISCID=1c036e03
DTITLE=Aoki Taisei - February 2013
DYEAR=2013
DGENRE=Jazz
TTITLE0=Hope
TTITLE1=Tchikurin
TTITLE2=Apple Snale
EXTD=YEAR: 2013
EXTT0=
EXTT1=
EXTT2=
PLAYORDER=
